<?xml version="1.0" encoding="UTF-8"?>
<svg width="19px" height="19px" viewBox="0 0 19 19" version="1.1" xmlns="http://www.w3.org/2000/svg" xmlns:xlink="http://www.w3.org/1999/xlink">
    <title>Shape</title>
    <g id="Page-1" stroke="none" stroke-width="1" fill="none" fill-rule="evenodd">
        <g id="facebook-icon-primary" fill="#000000">
            <path d="M10.328,6.382 L10.328,8.038 L12.618,8.038 L12.618,9.451 L10.328,9.451 L10.328,15.103 L8.623,15.103 L8.623,9.45 L6.626,9.45 L6.626,8.038 L8.623,8.038 L8.623,6.09 C8.623,4.97 9.5,4.044 10.572,4.044 L12.618,4.044 L12.618,5.554 L11.059,5.554 C10.669,5.554 10.329,5.944 10.329,6.382 L10.328,6.382 Z M15.346,0 L3.654,0 C1.656,0 0,1.656 0,3.654 L0,15.346 C0,17.344 1.656,19 3.654,19 L15.346,19 C17.344,19 19,17.344 19,15.346 L19,3.654 C19,1.656 17.392,0 15.346,0 Z" id="Shape"></path>
        </g>
    </g>
</svg>