<?xml version="1.0" encoding="UTF-8"?>
<svg width="19px" height="19px" viewBox="0 0 19 19" version="1.1" xmlns="http://www.w3.org/2000/svg" xmlns:xlink="http://www.w3.org/1999/xlink">
    <title>Shape</title>
    <g id="Page-1" stroke="none" stroke-width="1" fill="none" fill-rule="evenodd">
        <g id="instagram-icon-primary" fill="#000000">
            <path d="M14.897,17.991 L4.102,17.991 C2.396,17.991 1.008,16.604 1.008,14.897 L1.008,6.861 L5.433,6.861 C6.394,5.681 7.859,4.927 9.5,4.927 C11.14,4.927 12.605,5.681 13.567,6.861 L17.991,6.861 L17.991,14.897 C17.991,16.604 16.604,17.991 14.897,17.991 Z M12.847,3.038 C12.847,2.67 13.149,2.368 13.517,2.368 L15.527,2.368 C15.895,2.368 16.197,2.67 16.197,3.038 L16.197,5.048 C16.197,5.416 15.895,5.717 15.527,5.717 L13.517,5.717 C13.149,5.717 12.847,5.416 12.847,5.047 L12.847,3.038 L12.847,3.038 Z M14.898,0 L4.102,0 C1.84,0 0,1.84 0,4.102 L0,14.898 C0,17.159 1.84,19 4.102,19 L14.897,19 C17.16,19 19,17.16 19,14.898 L19,4.102 C19,1.84 17.16,0 14.897,0 L14.898,0 Z M13.87,9.905 C13.87,12.319 11.913,14.275 9.5,14.275 C7.086,14.275 5.13,12.319 5.13,9.905 C5.13,7.492 7.086,5.535 9.5,5.535 C11.913,5.535 13.87,7.492 13.87,9.905 L13.87,9.905 Z" id="Shape"></path>
        </g>
    </g>
</svg>