<svg xmlns="http://www.w3.org/2000/svg" width="103" height="24" fill="none" viewBox="0 0 103 24">
    <path fill="#000105" fill-rule="evenodd" d="M15.817 14.848L12.66 6.354l-3.124 8.494h6.28zM36.368 0c4.867 0 8.944 1.91 10.72 6.749L41.76 8.757c-.987-2.14-2.664-3.555-5.393-3.555-3.584 0-6.083 2.996-6.083 6.781 0 3.82 2.499 6.782 6.215 6.782 2.729 0 4.472-1.415 5.458-3.522l5.327 1.975C45.51 22.058 41.63 24 36.5 24c-7.53 0-12.233-5.136-12.233-11.983C24.267 5.136 28.97 0 36.368 0zm55.176 0c4.867 0 8.945 1.91 10.72 6.749l-5.327 2.008c-.986-2.14-2.663-3.555-5.393-3.555-3.584 0-6.083 2.996-6.083 6.781 0 3.82 2.5 6.782 6.215 6.782 2.73 0 4.472-1.415 5.458-3.522l5.328 1.975C100.686 22.058 96.806 24 91.676 24c-7.53 0-12.233-5.136-12.233-11.983C79.444 5.136 84.147 0 91.544 0zM15.718.46l9.7 23.046h-6.214l-1.645-4.247H7.826l-1.644 4.247H0L9.7.461h6.018zm52.415 0v5.104h-6.939v17.942h-5.919V5.564h-7.004V.46h19.862zm8.516 0v23.046h-5.886V.461h5.886z" clip-rule="evenodd"/>
</svg>
