<svg version="1.1" xmlns="http://www.w3.org/2000/svg" x="0" y="0" width="297" height="242" viewBox="-0.316 -0.291 297 242" overflow="visible" xml:space="preserve"><path fill="#FFF" d="M294.181 124.995c-2.717 64.369-51.852 114.568-148.914 110.471-97.41-4.112-134.86-44.73-140.578-117.615C-.724 48.87 69.204-1.264 155.111 2.363c97.06 4.099 141.178 72.744 139.07 122.632z"/><path fill="#FFF" d="M294.564 125.012c.07 2.041.276 1.733.538.346.271-1.395.539-3.914.665-6.249a86.48 86.48 0 0 0-1.454-4.124c.276 3.331.368 6.681.251 10.027zm-1.625-22.479a104.33 104.33 0 0 0-4.162-10.588 106.136 106.136 0 0 1 2.824 7.658c1.313 8.968-1.462-.913-2.721-4.027 1.088 3.491 1.671 5.577 2.102 6.736.423 1.161.672 1.401.864 1.256.392-.287.489-2.124 1.093-1.035zm-7.79-20.865c-1.43-3.324-2.212-4.394-2.417-4.312-.214.085.099 1.333.607 2.754.545.263 2.775 4.444 1.81 1.558zM24.555 189.95c-1.11-1.8-2.382-3.925-1.994-3.764-.752-.905-1.222-1.448-1.047-1.006.185.436.987 1.88 3.041 4.77z"/><path fill="#FFF" d="M22.561 186.187l.966 1.167-.842-1.127c-.103-.1-.078-.019-.124-.04z"/><path fill="#FFF" d="M34.014 53.257c2.302-3.049 4.397-5.201 6.533-7.221 2.151-2.01 4.353-3.889 7.135-6.247 1.276-.573 2.57-1.106 3.857-1.63 3.083-2.433 3.713-3.068 4.073-3.611.37-.533.483-.957 2.786-2.726 3.246-1.66 8.153-4.431 12.795-6.737 4.63-2.322 8.961-4.213 10.586-4.82 2.408-.428-2.546 1.702-3.487 2.448 4.235-1.962 6.171-3.007 8.397-4.115 2.235-1.08 4.764-2.253 10.415-3.854l.263.218c13.295-4.48 29.245-7.203 45.701-7.653 16.472-.475 33.396 1.143 48.775 4.538-2.063-.558-1.487-.646-2.246-1.034a156.04 156.04 0 0 1 24.521 7.6 147.492 147.492 0 0 1 23.135 11.781 147.779 147.779 0 0 1 19.779 14.842c5.893 5.235 11.017 10.632 15.409 15.717-2.717-3.681-6.016-7.923-9.888-12.213-3.864-4.294-8.297-8.636-13.075-12.599-9.521-7.98-20.517-14.215-29.369-17.245-2.97-1.792-7.063-3.41-10.718-4.71-3.655-1.307-6.871-2.319-8.091-3.238A122.147 122.147 0 0 0 184.291 6.5c-5.1-.896-9.743-1.398-14.355-1.737-4.615-.33-9.204-.493-14.231-.55a336.671 336.671 0 0 0-16.867.228c-3.663-.034-1.913-.608-2.995-1.05a203.038 203.038 0 0 1 20.364-.533 203.736 203.736 0 0 0-12.436-.63c2.691-.275 7.331-.275 11.482-.18 4.151.086 7.816.242 8.606-.158-8.979-.221-20.615-.446-31.925.483-11.307.861-22.226 2.899-29.628 5.352 7.151-1.471 16.098-3.306 24.723-4.041 3.815-.07 9.693-.147 9.333.388-12.241 1.348-23.3 3.163-34.242 5.833-10.914 2.708-21.76 6.273-32.911 11.943a320.88 320.88 0 0 0-8.701 4.621c-2.66 1.458-4.741 2.621-5.31 2.691 3.405-2.325.539-1.039 3.324-2.998-3.717 2.482-3.631 3.021-4.041 3.708-.2.35-.516.746-1.443 1.496-.925.754-2.472 1.845-5.057 3.703l.311-2.354c-1.55 2.232-4.701 4.531-8.156 7.313-3.453 2.765-7.196 6.06-9.832 9.824-2.664 2.043.893-2.93 6.052-7.815-3.033 2.651-4.403 4.39-5.6 5.98-1.184 1.606-2.187 3.084-4.204 5.548a102.52 102.52 0 0 1 2.839-5.574c-1.785 3.015-3.751 5.329-5.625 7.305-1.865 1.974-3.634 3.604-4.903 5.123.022.291.764-.172.898.192.149.374-.38 1.514-2.569 5.192-1.958 3.121-1.361 1.304-1.961 1.967.113.605-.863 3.586-2.99 8.797-.869.767.79-3.747.535-4.287-1.791 3.923-2.925 7.238-4.285 10.086-1.831 7.414.778-.266-.012 4.331-.851 2.768-1.287 4.232-1.637 4.894-.332.667-.544.539-.729.176-.372-.719-.606-2.401-1.581-.365.564-4.475 1.805-9.519 3.29-13.935 1.478-4.422 3.164-8.215 4.13-10.458a93.907 93.907 0 0 0-6.264 16.265c-.123-.593-1.219 2.162-1.922 3.993-.684 1.829-1.196 2.675-.281-1.918C.857 93.783-.368 103.627.089 113.254c.233 4.864.822 9.439 1.453 13.938a183.56 183.56 0 0 0 2.331 12.84c-.251-2.333-.604-5.314-.169-4.89.855 4.163 1.16 6.025 1.18 7.09.023 1.062-.204 1.315-.227 2.217.878 3.049 1.564 4.328 2.211 5.293s1.264 1.619 2.135 3.369c1.386 6.325 2.646 9.831 3.798 13.1 1.196 3.263 2.288 6.3 4.376 11.527l.549-1.072c1.497 3.663 2.847 5.52 4.263 7.378 1.44 1.853 2.934 3.726 5.292 7.256.12.505-2.086-1.906-3.758-3.946 2.298 3.004 3.226 4.481 4.147 5.957.936 1.458 1.866 2.924 4.536 5.512a95.439 95.439 0 0 1-4.743-3.707c1.917 2.297 4.488 4.94 6.286 6.748 1.792 1.812 2.754 2.873 1.297 2.164 4.183 3.211 9.848 7.627 16.223 11.508 6.346 3.916 13.351 7.281 19.395 9.393l-1.111.465c3.261.818 8.938 2.988 14.649 4.68 5.698 1.727 11.391 3.018 14.299 3.006l.869.546c4.335.527 8.667.929 12.993 1.201 5.785.958 3.646 1.924 4.162 1.646 12.837 1.487 22.893 1.955 31.162 2.706 1.063-.547 4.98-.768 9.97-1.04 4.99-.258 11.057-.593 16.417-1.088 12.935-.816 26.096-2.947 38.858-6.847 12.748-3.891 25.09-9.608 35.993-17.279 10.908-7.645 20.29-17.257 27.331-28.018 7.08-10.746 11.818-22.537 14.492-34.212.882-3.477 1.451-7.726 1.725-12.191.278-4.47.254-9.152.163-13.572-.395 5.393-.671 8.33-.935 11.256-.295 2.919-.56 5.839-1.73 11.032-1.047 3.863-2.183 6.383-3.362 8.706-1.195 2.317-2.443 4.444-4.049 7.424.727-.935 1.45-1.883 2.149-2.851-1.524 5.134-2.5 6.741-3.231 8.113-.778 1.361-1.346 2.487-2.953 6.427l-1.199-1.062c-.357 1.476-1.617 3.745-3.126 5.857a44.8 44.8 0 0 1-4.293 5.17 94.391 94.391 0 0 1-.806 2.826c-4.622 4.866-7.923 7.701-10.032 8.408l1.154.257c-.558.325-1.962 1.612-3.771 3.166-1.801 1.561-4.019 3.372-6.064 4.876-4.11 3-7.42 4.812-4.657 1.937-1.436 1.256-2.586 2.697-6.247 4.771l-1.05-.522c-5.024 3.307-11.115 6.303-12.94 6.462 2.897-1.528 3.678-2.426 4.451-3.271-5.695 2.709-8.923 4.083-10.727 5.102-1.813.998-2.231 1.574-2.559 2.135-.328.562-.566 1.102-2.09 1.961-1.529.837-4.341 2.039-9.928 3.508l.101-.688a170.925 170.925 0 0 1-5.535 2.015 162.56 162.56 0 0 1-6.181.411c-3.886 1.835-11.989 3.033-20.84 3.449-8.856.468-18.418.169-25.465.465-5.558-.05-12.782-1.678-23.202-2.684l.571 1.057c-4.165-.947-14.057-2.599-23.548-5.265-4.748-1.315-9.389-2.861-13.211-4.428-3.827-1.561-6.832-3.129-8.417-4.327-7.437-2.044.667.5.26 1.148-7.261-2.139-10.834-4.083-13.466-5.751-2.618-1.709-4.304-3.224-7.437-5.48-3.945-2.222-2.547-1.218-.706.106 1.844 1.312 4.214 2.832 1.898 1.919l-6.602-4.42c-1.66-1.089-2.964-1.878-4.337-2.758-1.369-.884-2.812-1.855-4.654-3.402-1.837-1.549-4.089-3.671-6.845-6.996-.357-.826.443-.048 1.544 1.033 1.098 1.085 2.525 2.452 3.288 2.935-4.684-3.812-10.482-10.398-15.203-18.61-4.785-8.175-8.433-17.871-10.912-26.746a174.042 174.042 0 0 1-3.138-17.226 200.81 200.81 0 0 1-1.037-9.688c-.136-1.657-.26-3.332-.36-5.022a95.812 95.812 0 0 1-.168-4.904c-.045-6.548.667-13.167 2.15-19.443a77.968 77.968 0 0 1 6.369-17.457l-.139-.547c2.493-4.257 5.047-8.671 8.081-13.076 3.027-4.398 6.541-8.78 10.791-12.757a100.914 100.914 0 0 0-4.277 3.774zM169.703 1.36L167.734.304c-3.985-.222-7.97-.314-11.945-.303 4.787.924 7.312.475 13.914 1.359z"/><path fill="#FFF" d="M166.899 3.643c2.055.067 4.107.184 6.162.318-3.298-.42-6.607-.743-9.921-.992 1.257.209 2.51.438 3.759.674zM28.995 46.742l1.142-1.037c4.995-5.651 10.576-10.804 16.573-15.43-6.439 4.892-12.417 10.388-17.715 16.467zm-5.64 143.015c-1.944-1.921-3.911-5.267-5.573-7.532a101.599 101.599 0 0 0 6.406 8.896l-.833-1.364zm89.772 50.548c4.263-.912 8.049 1.095 2.868-.971-6.395-.656-.967.728-2.868.971zm24.187.275c-3.653-.285-5.701-.229-7.728-.178 4.78 1.079 5.011.297 7.728.178z"/><path fill="#4D4A4F" d="M72.254 201.601L35.15 130.112l-.142 40.893a1.874 1.874 0 0 1-1.875 1.868h-.006a1.876 1.876 0 0 1-1.869-1.882l.194-56.143 37.104 71.488.222-63.733a1.874 1.874 0 0 1 1.875-1.868h.006a1.876 1.876 0 0 1 1.869 1.882l-.274 78.984zm60.358 12.216a1.874 1.874 0 0 1-1.8-1.353l-22.833-78.696-20.268 67.096a1.875 1.875 0 0 1-3.59-1.084l23.93-79.219 26.362 90.858a1.875 1.875 0 0 1-1.801 2.398zm43.534-88.975h-.006l-49.037-.149a1.875 1.875 0 0 1 .006-3.75h.006l49.037.149a1.876 1.876 0 0 1-.006 3.75z"/><path fill="#4D4A4F" d="M149.696 124.21c.001-.091.001-.124.091-.243.525-.824 1.876-2.016 3.491-.062.029.036.136.206.151.292l.02 6.189.224 67.855s-.362 5.68-.918 9.662c-.771 6.758-1.605 4.061-2.063-.125-.08.438-.739-10.012-.739-10.012l-.235-67.369-.022-6.187zm70.48 5.234c.002-.091.002-.124.093-.241.531-.822 1.891-2.003 3.491-.037.029.035.135.207.15.293l-.026 6.188-.092 23.867-.05 13.137-.026 6.767-.013 3.42c-.006 1.11.01 2.352-.104 3.589-.411 4.915-2.225 9.817-5.443 13.739-1.607 1.953-3.559 3.659-5.795 4.924-2.229 1.268-4.739 2.09-7.306 2.324a17.905 17.905 0 0 1-7.568-.914c-2.406-.83-4.589-2.164-6.443-3.793-3.721-3.277-6.103-7.686-7.203-12.187a26.944 26.944 0 0 1-.76-6.773l.021-6.183.041-11.648.064-18.087.013-3.128s.401-5.676.984-9.655c.817-6.753 1.634-4.05 2.062.14.083-.438.669 10.018.669 10.018l-.012 3.573-.066 19.249-.04 11.436-.011 3.01-.005 1.523c.001.486.006.952.034 1.431a22.59 22.59 0 0 0 1.035 5.679c1.181 3.708 3.437 7.219 6.625 9.616 3.156 2.417 7.278 3.546 11.248 2.849 3.965-.654 7.594-3.107 10.065-6.449 2.501-3.34 3.896-7.502 4.122-11.68l.221-49.806.025-6.191zm16.295-6.52l3.75.014-.245 67.957-3.75-.014z"/><path fill="#4D4A4F" d="M248.186 161.382h-.096l-9.891-.034a1.875 1.875 0 0 1 .007-3.75h.007l9.891.034h.082c10.816.001 19.626-7.308 19.657-16.322.031-9.037-8.772-16.421-19.626-16.459l-9.891-.034a1.875 1.875 0 0 1 .007-3.75h.007l9.891.034c12.921.046 23.401 9.117 23.362 20.223-.039 11.076-10.53 20.057-23.407 20.058z"/><path fill="#4D4A4F" d="M266.649 177.165c-.561 0-1.115-.25-1.484-.729l-12.715-16.444a1.875 1.875 0 1 1 2.967-2.293l12.715 16.444a1.875 1.875 0 0 1-1.483 3.022zM93.714 39.968c.073-.206.1-.28.113-.581.182-2.047-.115-5.197-3.24-1.306a4.47 4.47 0 0 0-.383.61L68.699 97.888l-7.32-12.355s-7.306-11.587-12.687-19.557c-8.984-13.612-6.377-7.589-1.613 1.325-.607-.866 11.701 21.141 11.701 21.141l10.728 18.116 24.206-66.59zm18.017-9.964c.001-.091.002-.124.092-.242.531-.822 1.891-2.003 3.492-.038.029.036.135.207.15.293l-.024 6.189-.196 52.84s-.402 5.677-.985 9.656c-.818 6.752-1.634 4.049-2.062-.14-.083.437-.669-10.018-.669-10.018l.182-52.351.02-6.189zm79.991 78.857l-50.316-76.546-.25 72.145a1.874 1.874 0 0 1-1.875 1.868h-.006a1.876 1.876 0 0 1-1.869-1.882l.293-84.597 50.316 76.546.215-61.721a1.876 1.876 0 0 1 1.875-1.869h.007a1.874 1.874 0 0 1 1.868 1.881l-.258 74.175zm68.17-4.244c.064.064.088.087.111.234.227.951.14 2.75-2.387 2.548a1.028 1.028 0 0 1-.315-.094l-4.454-4.297-23.536-22.688-3.182-3.066-1.59-1.533a33.913 33.913 0 0 1-1.669-1.66c-2.141-2.294-4.129-4.812-5.615-7.827-.729-1.509-1.326-3.167-1.529-5.003a10.05 10.05 0 0 1 .08-2.833c.172-.911.391-1.708.683-2.546.58-1.648 1.43-3.239 2.575-4.638a13.502 13.502 0 0 1 4.201-3.427c1.616-.845 3.378-1.35 5.132-1.572 1.77-.216 3.479-.184 5.231.047 3.554.463 7.026 2.323 9.323 5.165 1.155 1.415 2.059 3.029 2.585 4.85.256.916.431 1.879.368 2.979-.059.688-.052 1.606-.192 2.519a12.374 12.374 0 0 1-1.972 5.179c-1.024 1.541-2.339 2.806-3.74 3.844-2.826 2.069-5.97 3.315-9.081 4.255-2.957.883-5.856 1.847-8.611 2.998-2.747 1.152-5.369 2.497-7.582 4.19-2.213 1.685-3.953 3.765-4.737 6.145-.792 2.353-.706 5.072.081 7.406.787 2.356 2.34 4.399 4.262 5.958 1.927 1.562 4.206 2.659 6.535 3.266 2.333.622 4.686.675 7.02.353 4.661-.646 8.852-2.682 12.249-5.207a35.452 35.452 0 0 0 4.604-4.106 41.85 41.85 0 0 0 1.936-2.195l.431-.535c1.154-1.462 1.792-2.417 1.794-2.415-.003-.002.87-1.058 1.978-2.567 1.115-1.501 2.442-3.474 3.539-5.128 1.772-2.852 2.481-3.677 2.694-3.202.194.462-.166 2.196-.89 4.211.134-.183-.789 2.199-1.959 4.556a54.254 54.254 0 0 1-2.6 4.666l-.497.691-.602.802-.385.497-.925 1.139c-2.494 2.979-5.647 6-9.655 8.421-3.992 2.397-8.868 4.212-14.307 4.288-2.74.033-5.555-.524-8.19-1.616-2.638-1.093-5.151-2.741-7.197-5.001-4.17-4.449-5.72-11.887-2.389-17.853 1.631-2.928 4.153-5.121 6.796-6.828 2.667-1.709 5.521-3 8.424-4.116a88.44 88.44 0 0 1 4.398-1.542c1.474-.49 3.001-.9 4.347-1.367 2.746-.954 5.396-2.238 7.415-4.067 1.004-.912 1.826-1.958 2.376-3.114.556-1.171.815-2.383.861-3.805l.06-1.113a4.456 4.456 0 0 0-.071-.833 7.82 7.82 0 0 0-.553-1.804c-.517-1.201-1.303-2.319-2.246-3.254-1.899-1.894-4.46-2.96-7.231-3.124-2.829-.216-5.627.243-7.818 1.66-2.203 1.388-3.75 3.697-4.494 6.289-.095.324-.177.651-.248.982-.066.309-.104.57-.126.868a7.337 7.337 0 0 0 .121 1.811c.229 1.239.73 2.503 1.372 3.717 1.299 2.432 3.106 4.692 5.057 6.714l6.258 6.046 23.225 22.385 4.453 4.297zm-135.013 82.548H90.457a1.875 1.875 0 0 1 0-3.75h34.422a1.875 1.875 0 0 1 0 3.75z"/></svg>